<svg width="18" height="23" viewBox="0 0 18 23" fill="none" xmlns="http://www.w3.org/2000/svg">
<path fill-rule="evenodd" clip-rule="evenodd" d="M12.9785 0.5C13.1073 1.78072 12.6433 3.04277 11.9652 3.97043C11.2575 4.88366 10.1255 5.58216 9.02297 5.49219C8.87862 4.25984 9.4373 2.94941 10.0626 2.14992C10.7695 1.24263 11.997 0.547528 12.9785 0.5ZM17.4257 8.60853C17.2876 8.68713 15.0092 9.98362 15.0341 12.6273C15.0628 15.8202 17.9645 16.8757 18 16.8873C17.9827 16.9617 17.5456 18.4106 16.4572 19.8818C15.5484 21.1771 14.5962 22.4433 13.0837 22.4665C12.3647 22.4822 11.8792 22.2852 11.3733 22.0798C10.8456 21.8656 10.2957 21.6424 9.43539 21.6424C8.52332 21.6424 7.949 21.8728 7.39509 22.095C6.91621 22.2871 6.45259 22.473 5.79916 22.4987C4.35871 22.5492 3.25821 21.1159 2.31641 19.8323C0.433689 17.2113 -1.0319 12.4463 0.933209 9.20373C1.88541 7.61343 3.62158 6.58935 5.47742 6.56207C6.29465 6.54615 7.07845 6.84633 7.76556 7.10948C8.29101 7.31071 8.75992 7.49029 9.14398 7.49029C9.48132 7.49029 9.93708 7.31789 10.4683 7.11696C11.3054 6.8003 12.3298 6.41277 13.3734 6.51744C14.0872 6.53728 16.1182 6.78607 17.4285 8.60693L17.4257 8.60853Z" fill="#1A234A"/>
</svg>
