<svg width="18" height="21" viewBox="0 0 18 21" fill="none" xmlns="http://www.w3.org/2000/svg">
<path fill-rule="evenodd" clip-rule="evenodd" d="M0.46391 0.771159L9.91304 10.667L0.509275 20.6492C0.234852 20.4667 0.0877421 20.0705 0.0852507 19.5588C0.0805306 18.578 0.00566415 3.00969 2.62231e-05 1.8416C-0.00259607 1.28135 0.191716 0.939481 0.46391 0.771159ZM13.0292 7.35954L1.53894 0.784636C1.41621 0.714227 1.27683 0.671459 1.13799 0.652344L10.304 10.2521L13.0292 7.35954ZM13.5397 13.6409L10.6973 10.6643L13.5369 7.65023L17.4472 9.88734C18.4105 10.4383 17.9178 11.1275 17.4472 11.3978L13.5397 13.6409ZM1.2882 20.6523C1.36831 20.6208 1.45197 20.5804 1.53876 20.5307L13.0314 13.9328L10.3067 11.0793L1.2882 20.6523Z" fill="#1A234A"/>
</svg>
