<svg width="301" height="301" viewBox="0 0 301 301" fill="none" xmlns="http://www.w3.org/2000/svg">
<path fill-rule="evenodd" clip-rule="evenodd" d="M189.456 84.9458V11.2883C189.221 9.11119 188.362 7.04851 186.981 5.34856C185.906 3.99207 184.538 2.89621 182.98 2.14297C181.421 1.38972 179.713 0.998572 177.982 0.998779C177.006 1.00251 176.035 1.12848 175.091 1.37376C174.093 1.6325 171.03 2.34871 171.03 2.34871L112.532 16.343L111.835 16.5043L100.991 19.1066L93.1347 20.9815L89.4561 21.8665L65.8323 27.5212L35.3313 34.8183L34.6713 34.9721C32.2196 35.6346 30.0544 37.0863 28.5103 39.1027C26.9663 41.1192 26.1295 43.5881 26.1293 46.1278C26.1293 46.4765 26.1518 46.8252 26.1818 47.1665C26.4392 50.1241 27.8363 52.8658 30.0778 54.8124L30.974 55.5136L33.6252 57.6097L89.4636 101.599L96.547 107.171L100.998 106.114L112.54 103.346L189.456 84.9458ZM296.956 58.4883C297.286 58.0058 297.462 57.4349 297.462 56.8504C297.464 56.0951 297.169 55.3692 296.641 54.8292C296.636 54.8293 296.63 54.8275 296.626 54.824C296.622 54.8206 296.619 54.8158 296.618 54.8105L296.146 54.4355C296.135 54.4055 296.127 54.4055 296.105 54.4055L289.456 49.1595L286.888 47.1459L280.79 42.3649L277.922 40.115L232.174 4.24801L231.465 3.68554L230.963 3.31056C229.248 2.03054 227.211 1.25278 225.079 1.06424C222.948 0.875706 220.806 1.28384 218.893 2.24299C216.98 3.20214 215.372 4.67449 214.248 6.4954C213.124 8.31632 212.529 10.414 212.529 12.5538V79.4243L251.932 69.9822L252.427 69.8697L252.663 69.8173L253.788 69.5398L254.163 69.4573L255.479 69.1498L255.573 69.1273L273.737 64.7813L277.911 63.7838L289.445 61.0164L294.875 59.7303L295.591 59.554H295.613C296.158 59.3423 296.626 58.9708 296.956 58.4883ZM89.4074 120.729C89.1279 117.696 87.6566 114.898 85.3163 112.948L85.2751 112.914L84.8139 112.539L82.3128 110.575L26.8155 66.8517L24.0819 64.6956L19.9571 61.4558L19.4434 61.0433C17.7266 59.762 15.6871 58.9838 13.5532 58.7957C11.4192 58.6077 9.27507 59.0172 7.36066 59.9785C5.44625 60.9398 3.83715 62.4149 2.71344 64.2387C1.58974 66.0625 0.995783 68.1631 0.998053 70.3053V151.009C0.998053 151.883 0.998052 152.756 1.02055 153.634H0.998053V205.415C0.996533 207.129 1.37702 208.822 2.11185 210.371C2.84668 211.92 3.91739 213.285 5.24615 214.368C6.5749 215.452 8.12831 216.225 9.79345 216.633C11.4586 217.04 13.1936 217.071 14.8724 216.724L89.4936 198.879V121.798C89.4743 121.591 89.4586 121.385 89.4431 121.18C89.4316 121.028 89.4202 120.878 89.4074 120.729ZM300.977 148.279H300.947C300.967 149.184 300.977 150.089 300.977 150.994V232.155C300.977 234.295 300.382 236.392 299.258 238.213C298.134 240.034 296.526 241.507 294.613 242.466C292.7 243.425 290.558 243.833 288.426 243.645C286.295 243.456 284.258 242.678 282.543 241.398L282.104 241.049L277.908 237.716L274.998 235.402L219.606 191.376L212.545 185.751V103.011L256.103 92.5868C257.2 92.4906 258.277 92.2315 259.298 91.8181H259.339L277.927 87.3746L285.955 85.4547C285.955 85.4734 285.955 85.4847 285.978 85.4959C286.173 85.4247 286.379 85.3609 286.574 85.3084C288.278 84.8762 290.058 84.8383 291.779 85.1975C293.5 85.5567 295.116 86.3036 296.504 87.3814C297.893 88.4591 299.018 89.8394 299.793 91.4172C300.568 92.995 300.973 94.7288 300.977 96.4866V148.279ZM275.49 256.038C275.492 258.486 274.713 260.871 273.268 262.846C271.822 264.822 269.784 266.286 267.45 267.025H267.409L265.879 267.4L265.733 267.43L236.117 274.521L212.523 280.145L200.977 282.909L189.443 285.665C189.443 285.665 127.983 300.376 126.997 300.627L126.866 300.661L126.412 300.762C124.332 301.19 122.174 301.034 120.177 300.312C118.18 299.59 116.421 298.33 115.095 296.671C113.456 294.622 112.563 292.076 112.564 289.452V216.983L189.48 198.579L192.986 197.747L200.119 196.029L201 195.827L205.402 194.777L212.527 200.45C212.527 200.45 269.865 246.056 270.754 246.712L271.29 247.136L271.373 247.207C272.664 248.287 273.703 249.638 274.414 251.164C275.126 252.69 275.493 254.354 275.49 256.038ZM189.447 108.548V156.741C189.452 160.037 188.748 163.295 187.382 166.294C186.016 169.294 184.021 171.965 181.532 174.125C180.021 175.458 178.337 176.582 176.526 177.466C174.973 178.216 170.451 179.472 169.866 179.555L112.531 193.361V145.158C112.526 141.975 113.185 138.827 114.466 135.914C115.237 134.128 116.239 132.451 117.447 130.927C120.49 127.043 124.694 124.234 129.447 122.91L129.548 122.891L129.702 122.85L129.807 122.816L129.919 122.786L129.99 122.767L189.447 108.548ZM89.4626 286.539V222.504L47.0297 232.658L46.7597 232.722L46.6885 232.741L46.5347 232.775L46.126 232.864L28.2056 237.162L24.0808 238.148L12.5352 240.904L7.07544 242.22L6.79795 242.284C6.30889 242.437 5.86931 242.717 5.52434 243.096C5.17936 243.475 4.94141 243.939 4.83491 244.44C4.72841 244.941 4.7572 245.462 4.91832 245.948C5.07944 246.434 5.3671 246.869 5.75175 247.208L6.04799 247.433C6.06106 247.449 6.07982 247.46 6.10049 247.463L12.5352 252.255L21.1072 258.629L24.0808 260.849L70.976 295.749C71.0052 295.773 71.0366 295.794 71.0698 295.813C71.3729 296.042 71.6883 296.255 72.0147 296.45C73.6742 297.438 75.5551 297.994 77.4851 298.067C79.4151 298.139 81.3325 297.727 83.0616 296.866C84.7907 296.006 86.2762 294.725 87.3821 293.142C88.488 291.558 89.1788 289.723 89.3913 287.803C89.4399 287.384 89.4637 286.962 89.4626 286.539Z" fill="white"/>
</svg>
